<?xml version="1.0" ?><svg data-name="Layer 1" id="Layer_1" viewBox="0 0 64 64" xmlns="http://www.w3.org/2000/svg"><defs><style>
      .cls-1 {
        fill: #ffbc0a;
      }

      .cls-2 {
        fill: #a3cef1;
      }

      .cls-3 {
        fill: #6096ba;
      }

      .cls-4 {
        fill: #274c77;
      }
    </style></defs><path class="cls-4" d="M32,61h-3l-2-2H10v-24h4v18s12.15-3,18,8Z"/><path class="cls-4" d="M50,53v-18h4v24h-17s-2,2-2,2h-3c5.85-11,18-8,18-8Z"/><path class="cls-3" d="M32,61c-5.85-11-18-8-18-8V32l6-2v19c6.63,0,12,5.37,12,12Z"/><path class="cls-3" d="M44,30l6,2v21s-12.15-3-18,8c0-6.63,5.37-12,12-12V30Z"/><path class="cls-2" d="M32,41c0-6.63-5.37-12-12-12v20c6.63,0,12,5.37,12,12,0-6.63,5.37-12,12-12V29c-6.63,0-12,5.37-12,12Z"/><circle class="cls-1" cx="32" cy="15" r="12"/><path d="M54,34h-3v-2c0-.43-.28-.81-.68-.95l-5.32-1.77v-.28c0-.55-.45-1-1-1-5.4,0-10.04,3.31-12,8-1.96-4.69-6.6-8-12-8-.55,0-1,.45-1,1v.28l-5.32,1.77c-.41,.14-.68,.52-.68,.95v2h-3c-.55,0-1,.45-1,1v24c0,.55,.45,1,1,1H26.59l1.71,1.71c.19,.19,.44,.29,.71,.29h6c.27,0,.52-.11,.71-.29l1.71-1.71h16.59c.55,0,1-.45,1-1v-24c0-.55-.45-1-1-1Zm-39-1.28l4-1.33v17.61c0,.55,.45,1,1,1,4.51,0,8.39,2.73,10.09,6.62-5.18-5.42-12.26-5.17-15.09-4.8v-19.1Zm14.41,27.28l-1.71-1.71c-.19-.19-.44-.29-.71-.29H11v-22h2v17c0,.31,.14,.6,.38,.79,.24,.19,.56,.26,.86,.18,.11-.03,10.31-2.42,15.99,6.03h-.82Zm1.59-5.91c-2.14-3.39-5.79-5.73-10-6.05V30.04c5.6,.51,10,5.23,10,10.96v13.09Zm14-5.09V31.39l4,1.33v19.1c-2.83-.37-9.91-.62-15.09,4.8,1.7-3.89,5.58-6.62,10.09-6.62,.55,0,1-.45,1-1Zm-12-8c0-5.73,4.4-10.45,10-10.96v17.99c-4.21,.32-7.86,2.66-10,6.05v-13.09Zm20,17h-16c-.27,0-.52,.11-.71,.29l-1.71,1.71h-.82c5.63-8.43,15.55-6.14,15.99-6.03,.3,.07,.61,0,.86-.19,.24-.19,.38-.48,.38-.79v-17h2v22Z"/><path d="M32,28c7.17,0,13-5.83,13-13s-5.83-13-13-13-13,5.83-13,13,5.83,13,13,13Zm0-24c6.07,0,11,4.93,11,11s-4.93,11-11,11-11-4.93-11-11,4.93-11,11-11Z"/><rect height="10" width="2" x="31" y="12"/><rect height="2" width="2" x="31" y="9"/></svg>